<?xml version="1.0" encoding="utf-8"?>
<!-- Generator: Adobe Illustrator 19.0.0, SVG Export Plug-In . SVG Version: 6.00 Build 0)  -->
<svg version="1.1" id="Layer_1" xmlns="http://www.w3.org/2000/svg" xmlns:xlink="http://www.w3.org/1999/xlink" x="0px" y="0px"
	 viewBox="0 0 250 130" style="enable-background:new 0 0 250 130;" xml:space="preserve">
<style type="text/css">
	.st0{clip-path:url(#XMLID_25_);fill:#FFFFFF;}
	.st1{clip-path:url(#XMLID_25_);fill:#EDEDED;}
	.st2{fill:#3BBBB2;}
	.st3{fill:#FFFFFF;}
</style>
<g id="XMLID_21_">
	<g id="XMLID_54_">
		<g id="XMLID_62_">
			<defs>
				<path id="XMLID_17_" d="M177.7,28.9L130,1.3c-3.1-1.8-6.9-1.8-9.9,0L72.3,28.9c-3.1,1.8-5,5.1-5,8.6v55.1c0,3.5,1.9,6.8,5,8.6
					l47.7,27.5c1.5,0.9,3.3,1.3,5,1.3s3.4-0.4,5-1.3l47.7-27.5c3.1-1.8,5-5.1,5-8.6V37.5C182.6,33.9,180.7,30.6,177.7,28.9z"/>
			</defs>
			<clipPath id="XMLID_25_">
				<use xlink:href="#XMLID_17_"  style="overflow:visible;"/>
			</clipPath>
			<path id="XMLID_19_" class="st0" d="M177.7,28.9L130,1.3c-3.1-1.8-6.9-1.8-9.9,0L72.3,28.9c-3.1,1.8-5,5.1-5,8.6v55.1
				c0,3.5,1.9,6.8,5,8.6l47.7,27.5c1.5,0.9,3.3,1.3,5,1.3s3.4-0.4,5-1.3l47.7-27.5c3.1-1.8,5-5.1,5-8.6V37.5
				C182.6,33.9,180.7,30.6,177.7,28.9z"/>
			<rect id="XMLID_18_" x="27.8" y="-6.4" class="st1" width="97.2" height="166.7"/>
		</g>
		<path id="Nautical:3_38_" class="st2" d="M155.8,58.7l-12.3,8l2.2,3.3l5.5-3.6c-1,13.4-10.9,24.2-23.4,25.6V50.5h7.2v-3.9h-7.2
			v-7.7c2.4-1.1,4.1-3.6,4.1-6.5c0-3.9-3-7.1-6.7-7.1c-3.7,0-6.7,3.2-6.7,7.1c0,2.9,1.7,5.4,4.1,6.5v7.7h-7.1v3.9h7.1V92
			C110,90.6,100,79.7,99.2,66.1l5.2,4.1l2.4-3.1l-11.6-9.1l-8.6,12.3l3.2,2.3l4.1-5.8c1.1,16.3,13.3,29.3,28.6,30.7v3.4l2.4,3.9
			l2.8-3.9v-3.4c15-1.3,27.1-13.9,28.6-29.8l3.6,6.2l3.4-2L155.8,58.7z M122.4,32.4c0-1.7,1.3-3.1,2.8-3.1c1.6,0,2.8,1.4,2.8,3.1
			c0,1.7-1.3,3.1-2.8,3.1C123.6,35.5,122.4,34.1,122.4,32.4z"/>
	</g>
	<g id="XMLID_22_">
		<g id="XMLID_37_">
			<path id="XMLID_51_" class="st3" d="M5.5,84.8c-2-1.5-3-3.9-3-7.1c0-1.8,0.3-4,0.9-6.6c0-0.3,0.1-0.5,0.1-0.5
				c0-0.4-0.1-0.6-0.3-0.7c-0.2-0.1-0.5-0.2-0.9-0.2c-0.4-0.1-0.7-0.2-0.8-0.3c-0.2-0.1-0.2-0.3-0.2-0.6c0.1-0.2,0.2-0.4,0.4-0.4
				c0.3,0,0.6-0.1,0.9-0.1c0.3,0,0.6,0,0.9,0c0.2,0,0.4,0,0.6-0.1c0.1-0.1,0.3-0.3,0.4-0.5c0.1-0.2,0.2-0.4,0.3-0.6
				c0.1-0.2,0.2-0.4,0.3-0.6c0.8-2.6,1.9-5.2,3.3-7.7c1.5-2.5,3.1-4.5,4.9-6.1c1.8-1.6,3.6-2.4,5.4-2.4c1,0,2,0.3,2.9,0.8
				c1,0.6,1.5,1.6,1.5,3.1c0,1.4-0.4,2.9-1.2,4.7c-0.8,1.8-1.8,3.3-2.9,4.7c-1.6,2-3.4,3.6-5.5,4.7c-2.1,1.1-4.2,1.7-6.5,1.7
				c-0.4,0-0.7,0.3-0.9,0.8c-0.4,1.2-0.7,2.6-0.9,4.3c-0.3,1.7-0.4,3.1-0.4,4.4c0,0.7,0,1.1,0.1,1.4c0.2,1.1,0.7,2,1.7,2.8
				c0.4,0.3,0.8,0.4,1.4,0.4c0.9,0,2-0.3,3.1-1c1.6-1,3.4-2.2,5.3-3.6c1.9-1.4,3.5-2.7,4.9-3.8c1.4-1.1,2.2-1.9,2.6-2.2
				c0.2,0,0.4,0,0.5,0.2c0.1,0.1,0.2,0.3,0.2,0.5c0,0.1,0,0.2-0.1,0.3c-0.1,0.2-0.3,0.4-0.4,0.5c-2.2,1.9-4,3.5-5.3,4.5
				s-3.5,2.6-6.3,4.6c-0.7,0.5-1.5,0.8-2.3,1.1c-0.9,0.3-1.7,0.4-2.5,0.4C6.6,85.3,5.9,85.1,5.5,84.8z M7.6,68
				c1.5,0,3.1-0.4,4.7-1.2c1.6-0.8,3.1-1.8,4.3-3.1c1.2-1.2,2.2-2.8,3.2-4.7c1-1.9,1.5-3.5,1.5-4.8c0-0.9-0.3-1.5-0.9-1.8
				c-0.6-0.2-1.1-0.3-1.7-0.3c-3.4,0-6.8,4-10.3,12c-0.4,0.9-0.7,1.6-0.8,2.1s-0.3,0.9-0.3,1.2C7.2,67.8,7.3,68,7.6,68z"/>
			<path id="XMLID_45_" class="st3" d="M25,70.4c0.4-0.9,0.8-1.5,1.2-1.9c0.4-0.4,0.9-0.6,1.5-0.7c0.5-0.1,0.9,0,1.2,0.4
				c0.3,0.4,0.4,0.8,0.3,1.3c-0.1,0.2-0.2,0.3-0.4,0.4c-0.2,0-0.3,0-0.4-0.2l-0.1-0.1c0,0-0.1-0.2-0.3-0.4c-0.2-0.2-0.3-0.3-0.5-0.3
				c-0.2,0-0.4,0.1-0.7,0.4c-0.3,0.3-0.6,0.6-0.9,1.1c-0.3,0.5-0.5,0.9-0.7,1.4c-0.1,0.3-0.1,0.8-0.2,1.4c-0.1,0.6-0.1,1.2-0.1,1.7
				c0,0.6,0,0.9,0.1,1.2c0,0.1,0,0.2,0,0.3c0,0.3-0.1,0.6-0.2,0.9c-0.1,0.2-0.2,0.4-0.4,0.6C24.3,77.9,24.2,78,24,78
				c-0.3,0-0.5-0.1-0.6-0.4c-0.2-0.3-0.3-0.7-0.3-1.2c0-0.7-0.1-1.9-0.2-3.4c0-0.3,0-0.7,0-1.3l0-2.6c0-0.3,0.1-0.6,0.2-1.1
				c0.1-0.4,0.4-0.6,0.8-0.6c0.3,0,0.6,0.1,0.7,0.4c0.1,0.2,0.2,0.4,0.2,0.6c0,0.2,0,0.4,0,0.6c0,0.1,0,0.3,0,0.6
				C24.8,69.9,24.9,70.2,25,70.4z"/>
			<path id="XMLID_42_" class="st3" d="M32.6,70.3c0,3.8-0.1,6.2-0.3,7.2c0,0.1,0,0.3-0.1,0.5c0,0.2-0.1,0.4-0.2,0.6
				c-0.1,0.2-0.3,0.3-0.5,0.3c-0.2,0-0.3-0.1-0.4-0.2c-0.2-0.2-0.4-0.5-0.4-0.8c0-0.4-0.1-0.8-0.1-1v-0.2l0.3-6
				c0-0.5,0.1-0.9,0.3-1.2c0.2-0.3,0.4-0.4,0.7-0.4C32.3,68.9,32.6,69.4,32.6,70.3z M32.7,66.5c0,0.3,0,0.6,0,0.7
				c0,0.2-0.2,0.4-0.4,0.6C32.1,68,31.9,68,31.7,68c-0.2,0-0.4-0.1-0.5-0.3c-0.1-0.1-0.2-0.3-0.3-0.6c-0.1-0.5,0.1-1,0.4-1.5
				c0.2-0.2,0.4-0.3,0.6-0.3l0.2,0c0.2,0.1,0.4,0.3,0.5,0.5C32.6,65.9,32.7,66.1,32.7,66.5z"/>
			<path id="XMLID_38_" class="st3" d="M35.2,68.3c0-2.9,0.1-5.5,0.4-7.7c0.3-2.2,0.8-4.2,1.7-6c0.4-0.8,0.9-1.5,1.3-1.9
				C39,52.2,39.5,52,40,52c0.3,0,0.6,0.1,1,0.3c0.3,0.2,0.6,0.5,0.8,1c0.2,0.5,0.3,0.9,0.3,1.3c0,0.2,0,0.3-0.1,0.4
				c-0.1,0.1-0.2,0.2-0.3,0.2c-0.1,0-0.1-0.1-0.2-0.2c-0.1-0.1-0.1-0.3-0.2-0.5c0-0.3-0.1-0.6-0.2-0.7s-0.2-0.3-0.4-0.3
				c-0.3,0-0.7,0.3-1.1,0.8c-0.6,0.7-1.1,1.6-1.4,2.8c-0.3,1.2-0.5,2.5-0.6,3.9c-0.1,1.5-0.2,3.5-0.3,6.1l0,1.2l0,0.7
				c0.1,0,0.2-0.1,0.3-0.2c0.1-0.1,0.2-0.1,0.4-0.2c0.6-0.4,1.2-0.5,1.7-0.5c0.4,0,0.8,0.1,1,0.4c0.3,0.3,0.4,0.7,0.4,1.2
				c0,0.4-0.1,0.7-0.4,1.2c-0.3,0.5-0.8,0.9-1.4,1.2l-0.6,0.4l-0.9,0.5c-0.3,0.3-0.5,0.6-0.5,1c0,0.2,0,0.4,0.1,0.5
				c0.1,0.2,0.2,0.4,0.3,0.6c0.1,0.2,0.2,0.4,0.3,0.6l0.6,1c0.2,0.3,0.4,0.6,0.5,0.8c0.3,0.5,0.5,0.9,0.6,1.4c0,0.3,0,0.5-0.3,0.6
				c-0.2,0.1-0.4,0.1-0.6-0.1c-0.2-0.2-0.4-0.5-0.7-0.9c-0.3-0.6-0.7-1.1-1.2-1.8c-0.1-0.3-0.2-0.2-0.2,0.3v0.3c0,0.3,0,0.6,0,0.8
				s0,0.4,0,0.6v0.8c0,0.2-0.1,0.4-0.2,0.6c-0.1,0.2-0.3,0.3-0.5,0.3c-0.3,0-0.6-0.4-0.8-1.2c-0.2-0.8-0.3-2.2-0.3-4.2
				c0-1,0-2.4,0.1-4.2L35.2,68.3z M40.2,69.3c-0.1-0.1-0.2-0.2-0.4-0.2c-0.4,0-0.8,0.2-1.3,0.5c-0.5,0.3-0.9,0.7-1.2,1.1
				c0,0.6,0.1,0.9,0.4,0.9c0.1,0,0.4-0.1,0.6-0.2c0.3-0.1,0.5-0.2,0.5-0.3c0.1-0.1,0.2-0.2,0.4-0.2c0.1-0.1,0.2-0.1,0.3-0.2
				c0.2-0.1,0.4-0.3,0.5-0.5c0.1-0.2,0.2-0.4,0.2-0.6C40.3,69.5,40.2,69.4,40.2,69.3z"/>
		</g>
		<g id="XMLID_23_">
			<path id="XMLID_35_" class="st3" d="M212.4,69.7c0.2,1.2,0.3,2.4,0.3,3.6c0,2-0.3,3.9-1,5.6c-0.7,1.7-1.7,3.2-3,4.4
				c-1.3,1.2-2.9,1.9-4.8,2.2c-0.3,0.1-0.5,0.1-0.8,0.1c-0.9,0-1.6-0.3-2.1-0.8c-0.6-0.5-0.9-1.2-0.9-2c0-1,0.4-2.2,1.3-3.6
				c0.9-1.3,2-2.6,3.3-3.7c1.3-1.1,2.6-1.9,3.9-2.2c0.1,0,0.2,0,0.3,0c0.1,0,0.2,0.1,0.2,0.2c0,0,0,0.1,0,0.2c0,0.3-0.1,0.4-0.2,0.4
				c-1,0.3-2.1,0.9-3.3,1.8s-2.2,2-3,3.1c-0.8,1.2-1.2,2.3-1.2,3.4c0,0.5,0.2,0.9,0.5,1.2c0.3,0.3,0.7,0.4,1.3,0.4
				c0.3,0,0.6,0,0.9-0.1c1.5-0.4,2.7-1.1,3.8-2.2c1.1-1.1,1.9-2.4,2.4-3.9c0.6-1.5,0.8-3.1,0.8-4.8c0-1.1-0.1-2.2-0.3-3.2
				c-0.2-0.9-0.5-1.7-0.9-2.4c-0.4-0.7-0.9-1.3-1.4-1.9s-1.2-1.2-2.1-2c-0.9-0.9-1.7-1.6-2.2-2.1c-0.6-0.6-1.1-1.2-1.7-2
				c-0.9-1.2-1.4-2.7-1.4-4.5c0-1.4,0.2-2.8,0.7-4c0.5-1.3,1.1-2.3,2.1-3c0.9-0.8,2-1.2,3.3-1.2c1.1,0,2.1,0.4,2.8,1.3
				c0.7,0.9,1.1,1.9,1.1,3.2c0,0.3-0.1,0.5-0.1,0.6c-0.1,0.2-0.2,0.3-0.4,0.3c-0.1,0-0.2-0.1-0.3-0.2s-0.2-0.4-0.2-0.8
				c-0.2-1-0.5-1.7-0.9-2.1c-0.4-0.4-1-0.6-1.8-0.6c-0.9,0-1.6,0.3-2.2,0.8c-0.6,0.5-1.1,1.2-1.5,2.1c-0.3,0.9-0.5,1.8-0.5,2.8
				c0,1.3,0.3,2.5,0.8,3.7c0.4,0.9,1,1.7,1.6,2.4c0.6,0.7,1.4,1.5,2.4,2.5c0.9,0.8,1.5,1.5,2.1,2c0.5,0.6,1,1.3,1.5,2.1
				C211.9,67.8,212.3,68.7,212.4,69.7z"/>
			<path id="XMLID_33_" class="st3" d="M214.1,71.7c-0.1-0.7-0.1-1.3-0.1-1.9c0-1.3,0.3-2.4,0.9-3.3c0.3-0.4,0.6-0.6,0.8-0.6
				c0.3,0,0.4,0.2,0.4,0.7l0,0.4c0,0.1,0,0.3-0.1,0.6c-0.2,1-0.3,1.9-0.3,2.7c0,0.5,0,1,0.1,1.4c0.3,1.1,0.8,1.7,1.3,1.7
				c0.2,0,0.4-0.1,0.6-0.3c0.6-0.6,1.1-1.4,1.4-2.4c0.3-1,0.4-2,0.4-3c0-0.3-0.1-0.6-0.3-0.8c-0.2-0.2-0.4-0.3-0.6-0.3
				c-0.3,0-0.6,0.2-0.9,0.5c-0.3,0.3-0.4,0.7-0.4,1.3c0,0.2-0.1,0.3-0.4,0.3c-0.2,0-0.3-0.1-0.4-0.2c-0.1-0.2-0.1-0.5-0.1-0.7
				c0-0.5,0.2-1,0.5-1.4c0.3-0.4,0.7-0.7,1.2-0.8c0.1,0,0.2,0,0.4,0c0.4,0,0.8,0.2,1.2,0.5c0.4,0.3,0.6,0.7,0.8,1.2
				c0.1,0.4,0.2,0.8,0.2,1.4c0,0.9-0.2,1.9-0.6,3c-0.4,1.1-0.9,2-1.5,2.6c-0.6,0.7-1.3,1-2.2,1c-0.7,0-1.2-0.3-1.7-0.9
				C214.4,73.6,214.1,72.7,214.1,71.7z"/>
			<path id="XMLID_31_" class="st3" d="M222.1,73.4c-0.1-1.5-0.2-2.9-0.2-4.4c0-1.1,0.1-3.2,0.3-6.1c0.1-1.1,0.2-2.4,0.3-3.9
				s0.3-2.8,0.4-4.1c0-0.2,0.1-0.4,0.1-0.5l0-0.3c0-0.3-0.1-0.5-0.4-0.5c-0.2,0-0.3,0-0.4,0c-0.9,0.2-1.8,0.5-2.8,0.9
				c-1.9,0.8-3.7,1.2-5.2,1.2c-0.9,0-1.6-0.2-2.2-0.5c0,0-0.1-0.1-0.4-0.2c-0.2-0.1-0.3-0.3-0.3-0.4l0.1-0.1
				c0.1-0.1,0.2-0.1,0.2-0.1c0.1,0,0.1,0.1,0.2,0.1c0.5,0.2,1,0.3,1.7,0.3c0.3,0,0.6,0,1.1-0.1c1.3-0.2,2.5-0.5,3.5-1
				c1.3-0.7,2.8-1.2,4.6-1.7c0.5-0.1,0.8-0.3,0.9-0.8l0.3-1.1c0.1-0.7,0.4-1.4,0.8-2.1c0.3-0.3,0.5-0.5,0.7-0.5
				c0.1,0,0.3,0.1,0.4,0.3c0.1,0.2,0.1,0.4,0.1,0.7l0,0.4l-0.3,2.1c0,0.2,0,0.3,0.2,0.4c0.2,0,0.5,0.1,1,0.1c0.6,0,1.4,0,2.5,0.2
				c0.6,0,1.3,0.3,2.2,0.9c0.4,0.3,0.6,0.5,0.6,0.7v0.1c0,0-0.1,0.1-0.1,0.1c-0.1,0-0.1,0.1-0.2,0.1c-0.1,0-0.2,0-0.4-0.1
				c-0.6-0.3-1.3-0.4-1.9-0.5c-0.6-0.1-1.4-0.1-2.4-0.1l-1.3,0.1c-0.2,0-0.4,0.1-0.4,0.2c-0.1,0.1-0.1,0.2-0.1,0.4
				c-0.1,1.1-0.3,3.2-0.6,6.2c-0.3,3.1-0.4,5.3-0.5,6.7l-0.1,1.3c0,0.4,0,0.9-0.1,1.5c0,0.6,0,1.3,0,2.1l0,1.4
				c0,0.8,0.1,1.6,0.2,2.2c0.1,0.6,0.2,1.3,0.5,1.9c0.1,0.4,0.3,0.7,0.5,1c0.2,0.2,0.5,0.3,0.7,0.3c0.2,0,0.4-0.1,0.6-0.2
				c0.6-0.5,1.1-0.9,1.5-1.4c0.1-0.1,0.2-0.3,0.5-0.8c0.2-0.4,0.4-0.6,0.5-0.8c0.1-0.1,0.2-0.2,0.4-0.1s0.1,0.4-0.1,0.9
				c-0.2,0.5-0.6,1.1-1,1.7c-0.4,0.6-0.8,1-1.1,1.3c-0.4,0.4-0.9,0.5-1.4,0.5c-0.4,0-0.8-0.1-1.2-0.4c-0.4-0.2-0.7-0.6-1-1
				c-0.5-0.8-0.8-1.7-1-2.5C222.3,75,222.2,74.3,222.1,73.4z"/>
			<path id="XMLID_28_" class="st3" d="M227.6,72.4c0-0.2,0-0.4,0.1-0.8c0-0.3,0.1-0.6,0.1-0.7c0.3-1.8,0.7-3,1.2-3.8
				c0.4-0.8,1-1.4,1.6-1.7c0.3-0.2,0.6-0.3,0.9-0.4c0.1,0,0.2,0,0.4,0c0.4,0,0.8,0.1,1,0.4c0.3,0.3,0.4,0.6,0.4,1.1
				c0,0.1,0,0.2-0.1,0.5c-0.1,0.4-0.3,0.8-0.6,1.2c-0.7,1-1.5,1.8-2.4,2.2c-0.5,0.3-0.8,0.7-0.9,1.3c0,0.2-0.1,0.6-0.1,1
				c0,0.5,0,1,0.1,1.4c0.1,0.2,0.2,0.4,0.3,0.5c0.1,0.1,0.3,0.1,0.5,0.1c0.1,0,0.3,0,0.3,0c0.2,0,0.5-0.2,0.9-0.5
				c1.5-1.2,2.7-2.4,3.7-3.5c0.4-0.4,0.8-0.8,1.3-1.3s0.8-0.7,0.8-0.6c0,0,0.1,0.1,0.1,0.2c0,0.1,0,0.2-0.1,0.3
				c-0.6,0.7-1.2,1.5-2.1,2.4c-0.8,0.9-1.5,1.7-2.1,2.3c-0.2,0.2-0.4,0.4-0.6,0.6c-0.2,0.2-0.3,0.4-0.5,0.5
				c-0.4,0.3-0.8,0.6-1.1,0.7c-0.4,0.1-0.7,0.2-0.9,0.2c-0.4,0-0.8-0.1-1.1-0.3c-0.3-0.2-0.6-0.5-0.8-1c-0.1-0.3-0.2-0.7-0.3-1
				C227.6,73.4,227.6,73,227.6,72.4z M231.9,66.8c0-0.1,0-0.1-0.1-0.2c-0.1,0-0.1-0.1-0.2-0.1h0c-0.2,0-0.3,0.1-0.4,0.2
				c-0.7,0.5-1.1,1.2-1.3,2.2c0,0,0,0.1,0.1,0.2c0.1,0,0.2,0,0.2,0c0.6-0.5,1.1-1.2,1.6-2.1C231.9,67,231.9,66.9,231.9,66.8
				C231.9,66.9,231.9,66.8,231.9,66.8z"/>
			<path id="XMLID_26_" class="st3" d="M236.2,63.1c0-2.2,0.3-4.6,0.8-7.3c0.6-2.6,1.3-5,2.3-7.1c0.6-1.2,1.3-2.3,2.3-3.3
				c0.3-0.3,0.6-0.6,1.1-0.8c0.4-0.2,0.9-0.3,1.3-0.3c0.7,0,1.3,0.3,1.7,0.8c0.3,0.3,0.5,0.7,0.6,1.1c0.1,0.4,0.2,0.9,0.3,1.5
				c0,0.1,0,0.4,0,0.8c0,0.9-0.1,2-0.3,3.3c-0.2,1.3-0.5,2.3-0.8,3.1c-0.9,2.6-2.3,5.1-4.1,7.3c-0.2,0.3-0.4,0.5-0.6,0.7
				c-0.2,0.2-0.4,0.3-0.8,0.5c-0.3,0.1-0.4,0-0.4-0.3c0-0.4,0.2-0.9,0.6-1.4c0.5-0.8,1.3-2.2,2.3-4.2c0.6-1.2,1.1-2.7,1.6-4.3
				c0.4-1.7,0.7-3.1,0.7-4.4c0-0.6,0-1.1-0.1-1.4c-0.1-0.6-0.4-0.9-0.8-0.9c-0.3,0-0.6,0.1-0.9,0.4c-0.3,0.3-0.6,0.7-0.9,1.2
				c-0.7,1.2-1.4,3-2.1,5.4c-0.6,2.4-1.2,5-1.5,7.9c-0.1,0.7-0.2,2-0.3,3.8c-0.1,1.8-0.1,3.2-0.1,4.3c0.1,2.6,0.3,4.6,0.5,6
				c0.2,1.4,0.6,2.6,1.1,3.7c0.5,0.9,1.1,1.4,1.6,1.4c0.4,0,0.8-0.2,1.2-0.6c0.2-0.2,0.4-0.4,0.6-0.6c0.2-0.2,0.3-0.3,0.4-0.5
				c0.1-0.1,0.3-0.2,0.4-0.2c0,0,0.1,0,0.2,0.1c0.1,0.1,0.2,0.2,0.2,0.4c0,0,0,0.1-0.1,0.3c0,0.1-0.1,0.3-0.3,0.5
				c-0.2,0.3-0.5,0.6-1,1.1c-0.5,0.4-1.1,0.6-1.7,0.6c-0.6,0-1.1-0.2-1.6-0.6c-0.5-0.4-1-1-1.4-1.8c-0.6-1.2-1.1-2.9-1.4-5.2
				c-0.4-2.3-0.6-4.8-0.6-7.6C236.1,65.8,236.1,64.7,236.2,63.1z"/>
			<path id="XMLID_24_" class="st3" d="M242.1,71.7c-0.1-0.7-0.1-1.3-0.1-1.9c0-1.3,0.3-2.4,0.9-3.3c0.3-0.4,0.6-0.6,0.8-0.6
				c0.3,0,0.4,0.2,0.4,0.7l0,0.4c0,0.1,0,0.3-0.1,0.6c-0.2,1-0.3,1.9-0.3,2.7c0,0.5,0,1,0.1,1.4c0.3,1.1,0.8,1.7,1.3,1.7
				c0.2,0,0.4-0.1,0.6-0.3c0.6-0.6,1.1-1.4,1.4-2.4c0.3-1,0.4-2,0.4-3c0-0.3-0.1-0.6-0.3-0.8c-0.2-0.2-0.4-0.3-0.6-0.3
				c-0.3,0-0.6,0.2-0.9,0.5c-0.3,0.3-0.4,0.7-0.4,1.3c0,0.2-0.1,0.3-0.4,0.3c-0.2,0-0.3-0.1-0.4-0.2c-0.1-0.2-0.1-0.5-0.1-0.7
				c0-0.5,0.2-1,0.5-1.4c0.3-0.4,0.7-0.7,1.2-0.8c0.1,0,0.2,0,0.4,0c0.4,0,0.8,0.2,1.2,0.5c0.4,0.3,0.6,0.7,0.8,1.2
				c0.1,0.4,0.2,0.8,0.2,1.4c0,0.9-0.2,1.9-0.6,3c-0.4,1.1-0.9,2-1.5,2.6c-0.6,0.7-1.3,1-2.2,1c-0.7,0-1.2-0.3-1.7-0.9
				C242.4,73.6,242.1,72.7,242.1,71.7z"/>
		</g>
	</g>
</g>
</svg>
